Coordinates
version=1
nRows=26
nColumns=27
inDegrees=yes

Units are S.I. units (second, meters, Newtons, ...)
If the header above contains a line with 'inDegrees', this indicates whether rotational values are in degrees (yes) or radians (no).

endheader
time	pelvis_rotation	pelvis_tilt	pelvis_list	pelvis_tx	pelvis_ty	pelvis_tz	hip_flexion_r	hip_adduction_r	hip_rotation_r	knee_angle_r	knee_rotation_r	knee_adduction_r	knee_angle_r_beta	ankle_angle_r	subtalar_angle_r	mtp_angle_r	hip_flexion_l	hip_adduction_l	hip_rotation_l	knee_angle_l	knee_rotation_l	knee_adduction_l	knee_angle_l_beta	ankle_angle_l	subtalar_angle_l	mtp_angle_l
      7.68500000	      5.10982062	    -46.02394168	      4.17052767	     -0.12410188	      0.70676001	     -1.18437196	    108.89711289	    -11.22463427	     -7.44865962	     80.59325248	     -8.82424469	      7.95796797	      1.40661761	     13.89876037	     -6.60198297	      0.00000000	    107.89029937	     -8.10338900	    -10.59312254	     77.20933213	     -9.15554867	     -9.03921204	      1.34755706	     13.51962137	      2.07424686	      0.00000000
      7.69000000	      4.89360974	    -45.94234283	      3.60662607	     -0.12348298	      0.70855763	     -1.18441347	    108.34733869	    -11.19122513	     -8.55254157	     80.11583712	     -9.33849695	      8.54563039	      1.39828514	     13.75676701	     -7.03507461	      0.00000000	    107.67915132	     -8.09785525	    -10.59990122	     76.95631737	     -9.51518094	     -9.45713218	      1.34314112	     13.37480295	      1.82853804	      0.00000000
      7.69500000	      5.31936864	    -45.96053033	      4.31396612	     -0.12333584	      0.70919457	     -1.18465174	    108.49035780	    -11.37979449	     -8.01885192	     80.13605522	     -9.30486780	      8.53774350	      1.39863801	     13.74462240	     -6.97031750	      0.00000000	    107.44815621	     -7.86640797	    -11.12091575	     76.68274222	     -9.52718137	     -9.44785138	      1.33836633	     13.31923468	      1.78932427	      0.00000000
      7.70000000	      5.34240061	    -45.98569756	      4.33358413	     -0.12316669	      0.70988626	     -1.18469257	    108.42287286	    -11.38821609	     -8.02645109	     80.01703947	     -9.30525669	      8.54393360	      1.39656080	     13.68750416	     -6.97610062	      0.00000000	    107.37397972	     -7.84614397	    -11.15235067	     76.55910259	     -9.52004578	     -9.44692107	      1.33620841	     13.28320538	      1.80800409	      0.00000000
      7.70500000	      5.54567408	    -46.18724776	      4.52695573	     -0.12340987	      0.70957044	     -1.18464994	    108.73972818	    -11.51407792	     -7.35775106	     80.16264942	     -8.79141967	      7.94427419	      1.39910217	     13.79221270	     -6.49686542	      0.00000000	    107.61854192	     -7.74036872	    -10.75939318	     76.62031557	     -9.12453043	     -9.02308606	      1.33727678	     13.28667820	      2.10062864	      0.00000000
      7.71000000	      5.36891930	    -46.06663554	      3.98817776	     -0.12264074	      0.71183794	     -1.18465599	    108.07399203	    -11.51603801	     -8.54974493	     79.59010022	     -9.33366970	      8.64565670	      1.38910930	     13.51813103	     -7.14422346	      0.00000000	    107.24516697	     -7.69177002	    -10.78492491	     76.21824493	     -9.50800262	     -9.42483306	      1.33025932	     13.34855964	      2.15268421	      0.00000000
      7.71500000	      5.14536163	    -46.15870788	      4.33906948	     -0.12292440	      0.71130374	     -1.18423466	    108.40483489	    -11.09281757	     -7.38758095	     79.78985780	     -8.80349937	      7.94550215	      1.39259573	     13.68410734	     -6.61807812	      0.00000000	    107.31137001	     -8.15944563	    -10.89344954	     76.35029213	     -9.10751010	     -9.04150621	      1.33256398	     13.23062953	      2.31688776	      0.00000000
      7.72000000	      5.09461412	    -46.10053661	      3.93625906	     -0.12230989	      0.71320725	     -1.18431824	    107.90996089	    -11.17507193	     -8.42428369	     79.32636004	     -9.30912520	      8.56505716	      1.38450617	     13.50398749	     -7.07578457	      0.00000000	    107.07179837	     -8.02621229	    -10.98176128	     76.01020209	     -9.48417745	     -9.45001757	      1.32662829	     13.11055694	      2.06281062	      0.00000000
      7.72500000	      5.75258128	    -46.17659641	      4.67928192	     -0.12222100	      0.71382986	     -1.18474491	    108.12307657	    -11.63823822	     -8.02834972	     79.36963006	     -9.28357148	      8.56687500	      1.38526137	     13.48619806	     -6.95283110	      0.00000000	    106.95101768	     -7.54564447	    -11.37677433	     75.73853380	     -9.49156417	     -9.44721693	      1.32188679	     13.00702070	      1.95104195	      0.00000000
      7.73000000	      5.57537400	    -46.24902294	      4.34565054	     -0.12196028	      0.71474004	     -1.18456135	    107.94117131	    -11.54150598	     -8.31902014	     79.14208418	     -9.29602874	      8.57086922	      1.38128995	     13.51930522	     -6.82893573	      0.00000000	    106.95570668	     -7.64799153	    -11.14612075	     75.63884648	     -9.47929906	     -9.43332570	      1.32014691	     13.04666873	      2.17312276	      0.00000000
      7.73500000	      5.80726934	    -46.24487574	      4.73510469	     -0.12182562	      0.71553021	     -1.18462962	    107.95059837	    -11.65350945	     -8.08066174	     79.06508641	     -9.28222334	      8.58528529	      1.37994608	     13.43795652	     -6.89837376	      0.00000000	    106.75878118	     -7.53389254	    -11.46065471	     75.40047245	     -9.47763476	     -9.44641276	      1.31598650	     12.91612696	      2.10071565	      0.00000000
      7.74000000	      5.97533710	    -46.28031870	      4.87606449	     -0.12167458	      0.71631336	     -1.18467920	    107.91599556	    -11.78267461	     -8.06417872	     78.95687729	     -9.27405715	      8.59556272	      1.37805748	     13.38556683	     -6.87708482	      0.00000000	    106.66943860	     -7.40409223	    -11.52774714	     75.22072202	     -9.47221013	     -9.44357353	      1.31284926	     12.84096760	      2.09647096	      0.00000000
      7.74500000	      5.98617619	    -46.31203448	      4.92155878	     -0.12149206	      0.71711454	     -1.18457451	    107.84687037	    -11.76413213	     -8.05734029	     78.81738314	     -9.26918558	      8.60228319	      1.37562284	     13.32747202	     -6.89645492	      0.00000000	    106.56909721	     -7.42559894	    -11.59053883	     75.05880407	     -9.46565084	     -9.44138406	      1.31002326	     12.81882775	      2.21200114	      0.00000000
      7.75000000	      5.91749770	    -46.48041416	      4.94664170	     -0.12178582	      0.71689193	     -1.18423248	    108.08040889	    -11.64440075	     -7.41128378	     78.90258179	     -8.75208822	      7.97688373	      1.37710984	     13.40879475	     -6.46709931	      0.00000000	    106.77330403	     -7.59693538	    -11.19223062	     75.14453280	     -9.03353897	     -9.03032556	      1.31151951	     12.81868995	      2.52631881	      0.00000000
      7.75500000	      5.93675411	    -46.32865864	      4.98073680	     -0.12115201	      0.71879981	     -1.18431408	    107.64413112	    -11.66376270	     -8.05137511	     78.50966574	     -9.27475338	      8.58995101	      1.37025216	     13.22005495	     -6.86444716	      0.00000000	    106.30688969	     -7.52821327	    -11.75069758	     74.71508228	     -9.44955130	     -9.44907330	      1.30402419	     12.68516412	      2.29079395	      0.00000000
      7.76000000	      6.05768444	    -46.55244581	      5.07850488	     -0.12148401	      0.71853024	     -1.18411373	    107.95538337	    -11.73772527	     -7.44865049	     78.63184664	     -8.74862702	      7.99474286	      1.37238462	     13.30414988	     -6.40737502	      0.00000000	    106.58702454	     -7.50870754	    -11.28583026	     74.79024973	     -9.01688043	     -9.02892730	      1.30533611	     12.70236628	      2.59880245	      0.00000000
      7.76500000	      5.93394002	    -46.38072740	      5.05827909	     -0.12082777	      0.72048465	     -1.18407343	    107.48233311	    -11.62082485	     -8.05396396	     78.20740990	     -9.26059827	      8.61560760	      1.36497680	     13.10313183	     -6.86275215	      0.00000000	    106.08248135	     -7.59012791	    -11.89526564	     74.37056144	     -9.43777386	     -9.44936750	      1.29801116	     12.61627165	      2.43850155	      0.00000000
      7.77000000	      6.15204941	    -46.47890431	      5.15938732	     -0.12072048	      0.72124338	     -1.18408945	    107.49919301	    -11.80963070	     -8.12085620	     78.10231847	     -9.26040503	      8.60956455	      1.36314261	     13.08767914	     -6.78546364	      0.00000000	    106.08532721	     -7.39600098	    -11.86932487	     74.18708149	     -9.43108969	     -9.44564328	      1.29480883	     12.51527656	      2.45610190	      0.00000000
      7.77500000	      6.13841767	    -46.67047346	      5.20040477	     -0.12107177	      0.72095506	     -1.18376706	    107.77448969	    -11.74770817	     -7.48544084	     78.21703829	     -8.73857442	      7.97586812	      1.36514485	     13.12236050	     -6.35237920	      0.00000000	    106.32484684	     -7.51279620	    -11.42994857	     74.27734606	     -8.98605443	     -9.02655008	      1.29638425	     12.52712030	      2.76962543	      0.00000000
      7.78000000	      6.12443389	    -46.52497569	      5.25184415	     -0.12043921	      0.72287060	     -1.18377402	    107.35366628	    -11.72698889	     -8.08848784	     77.81824694	     -9.25288826	      8.61115803	      1.35818463	     12.98940889	     -6.74347719	      0.00000000	    105.85495800	     -7.49444130	    -12.04997946	     73.84536697	     -9.41979421	     -9.44856126	      1.28884479	     12.42623819	      2.60948175	      0.00000000
      7.78500000	      6.22651829	    -46.58782192	      5.28793706	     -0.12032790	      0.72364579	     -1.18370198	    107.31831144	    -11.81814523	     -8.15685527	     77.69387752	     -9.24752345	      8.61994967	      1.35601397	     12.94467404	     -6.70801335	      0.00000000	    105.81593750	     -7.41039058	    -12.03995345	     73.67597160	     -9.41202242	     -9.44783195	      1.28588828	     12.34120682	      2.62117571	      0.00000000
      7.79000000	      6.17812133	    -46.64764788	      5.31174322	     -0.12021760	      0.72451547	     -1.18351313	    107.27482907	    -11.73383008	     -8.14968098	     77.53181083	     -9.26384600	      8.58278476	      1.35318537	     12.80710410	     -6.69324309	      0.00000000	    105.72729550	     -7.48547390	    -12.12233824	     73.49075495	     -9.40173041	     -9.45406534	      1.28265564	     12.31254424	      2.74600378	      0.00000000
      7.79500000	      6.12236244	    -46.79098245	      5.34508758	     -0.12060189	      0.72419911	     -1.18313439	    107.50611945	    -11.64449111	     -7.48719877	     77.65163669	     -8.72408562	      7.98566506	      1.35527673	     12.92372633	     -6.18767471	      0.00000000	    105.92223496	     -7.64583350	    -11.69041741	     73.59306645	     -8.94216356	     -9.03671278	      1.28444132	     12.28445089	      2.98919315	      0.00000000
      7.80000000	      6.34993218	    -46.68000965	      5.32745476	     -0.11997809	      0.72605339	     -1.18332843	    107.08970317	    -11.91995973	     -8.33235970	     77.27924392	     -9.24585289	      8.61711447	      1.34877725	     12.80297369	     -6.54957246	      0.00000000	    105.56297898	     -7.33266930	    -12.07602398	     73.16169218	     -9.39005079	     -9.44963365	      1.27691241	     12.14221467	      2.76275994	      0.00000000
      7.80500000	      6.02077852	    -46.80295952	      5.37802948	     -0.12036912	      0.72577022	     -1.18272277	    107.32692671	    -11.50374066	     -7.46967920	     77.36976153	     -8.71111203	      7.98458247	      1.35035708	     12.79378528	     -6.21344436	      0.00000000	    105.66746858	     -7.81141121	    -11.86814144	     73.27049077	     -8.93373409	     -9.04761043	      1.27881131	     12.20759592	      3.16582755	      0.00000000
      7.81000000	      6.30958583	    -46.71138764	      5.50212392	     -0.11977962	      0.72759832	     -1.18296861	    106.98450251	    -11.79909097	     -8.18727391	     77.02356984	     -9.23216201	      8.59453895	      1.34431490	     12.66411085	     -6.48109232	      0.00000000	    105.30639525	     -7.47020677	    -12.35887832	     72.81621323	     -9.38379984	     -9.45488128	      1.27088267	     12.03482507	      2.92139156	      0.00000000
